<svg width="850" height="147" viewBox="0 0 850 147" fill="none" xmlns="http://www.w3.org/2000/svg">
<path d="M41.2646 144V27.3944H0.251604V3.26909H108.815V27.3944H67.8024V144H41.2646ZM146.238 146.815C136.32 146.815 127.541 144.737 119.901 140.582C112.395 136.293 106.498 130.329 102.209 122.689C98.0543 114.916 95.9769 105.802 95.9769 95.3473V92.9348C95.9769 82.4805 98.0543 73.4335 102.209 65.7938C106.364 58.0201 112.194 52.0558 119.7 47.9009C127.206 43.6119 135.918 41.4675 145.836 41.4675C155.62 41.4675 164.131 43.679 171.368 48.1019C178.606 52.3909 184.235 58.4222 188.256 66.1959C192.277 73.8356 194.287 82.7485 194.287 92.9348V101.58H121.711C121.979 108.415 124.525 113.977 129.35 118.266C134.175 122.555 140.073 124.7 147.042 124.7C154.146 124.7 159.373 123.158 162.724 120.076C166.074 116.993 168.621 113.575 170.363 109.822L191.071 120.679C189.194 124.164 186.447 127.983 182.828 132.138C179.343 136.159 174.652 139.644 168.755 142.593C162.858 145.407 155.352 146.815 146.238 146.815ZM121.912 82.6815H168.554C168.018 76.9183 165.672 72.2943 161.517 68.8095C157.496 65.3247 152.202 63.5823 145.635 63.5823C138.799 63.5823 133.371 65.3247 129.35 68.8095C125.329 72.2943 122.85 76.9183 121.912 82.6815ZM208.792 144V44.2821H233.722V57.35H237.341C238.949 53.8652 241.965 50.5815 246.388 47.4988C250.811 44.2821 257.512 42.6737 266.492 42.6737C274.266 42.6737 281.034 44.4831 286.798 48.1019C292.695 51.5867 297.252 56.4788 300.469 62.7782C303.685 68.9435 305.294 76.1811 305.294 84.4909V144H279.962V86.5014C279.962 78.9957 278.086 73.3665 274.333 69.6137C270.714 65.8608 265.487 63.9844 258.651 63.9844C250.878 63.9844 244.846 66.598 240.557 71.8251C236.269 76.9183 234.124 84.0888 234.124 93.3369V144H208.792ZM366.051 146.815C353.051 146.815 342.395 144 334.085 138.371C325.776 132.742 320.749 124.7 319.007 114.245L342.328 108.214C343.266 112.905 344.808 116.591 346.952 119.272C349.231 121.952 351.978 123.896 355.195 125.102C358.546 126.174 362.165 126.71 366.051 126.71C371.949 126.71 376.305 125.705 379.119 123.695C381.934 121.55 383.341 118.936 383.341 115.854C383.341 112.771 382.001 110.426 379.32 108.817C376.64 107.075 372.351 105.668 366.454 104.595L360.824 103.59C353.855 102.25 347.488 100.44 341.725 98.1619C335.962 95.7494 331.338 92.4657 327.853 88.3108C324.368 84.1559 322.626 78.7947 322.626 72.2272C322.626 62.3091 326.245 54.7364 333.482 49.5092C340.72 44.1481 350.236 41.4675 362.031 41.4675C373.155 41.4675 382.403 43.947 389.775 48.9061C397.146 53.8652 401.971 60.3656 404.25 68.4074L380.728 75.645C379.655 70.5519 377.444 66.9331 374.093 64.7886C370.876 62.6441 366.856 61.5719 362.031 61.5719C357.205 61.5719 353.52 62.4431 350.973 64.1855C348.427 65.7938 347.153 68.0723 347.153 71.021C347.153 74.2377 348.494 76.6502 351.174 78.2586C353.855 79.7329 357.474 80.8721 362.031 81.6763L367.66 82.6815C375.165 84.0218 381.934 85.8312 387.965 88.1097C394.131 90.2542 398.956 93.4039 402.44 97.5588C406.059 101.58 407.869 107.075 407.869 114.044C407.869 124.499 404.049 132.607 396.409 138.371C388.903 144 378.784 146.815 366.051 146.815ZM452.2 146.815C445.097 146.815 438.73 145.608 433.101 143.196C427.472 140.649 422.982 137.03 419.631 132.339C416.415 127.514 414.806 121.684 414.806 114.849C414.806 108.013 416.415 102.317 419.631 97.7598C422.982 93.0688 427.539 89.584 433.302 87.3056C439.2 84.893 445.901 83.6868 453.407 83.6868H480.749V78.0575C480.749 73.3665 479.274 69.5467 476.326 66.598C473.377 63.5153 468.686 61.974 462.253 61.974C455.953 61.974 451.262 63.4483 448.18 66.397C445.097 69.2116 443.086 72.8974 442.148 77.4544L418.827 69.6137C420.435 64.5205 422.982 59.8965 426.467 55.7416C430.086 51.4527 434.844 48.0349 440.741 45.4884C446.772 42.8078 454.077 41.4675 462.655 41.4675C475.79 41.4675 486.177 44.7512 493.817 51.3186C501.456 57.8861 505.276 67.4022 505.276 79.8669V117.06C505.276 121.081 507.152 123.091 510.905 123.091H518.947V144H502.059C497.1 144 493.012 142.794 489.796 140.381C486.579 137.969 484.971 134.752 484.971 130.731V130.53H481.151C480.615 132.138 479.408 134.283 477.532 136.963C475.656 139.51 472.707 141.789 468.686 143.799C464.665 145.809 459.17 146.815 452.2 146.815ZM456.623 126.308C463.727 126.308 469.49 124.365 473.913 120.478C478.47 116.457 480.749 111.163 480.749 104.595V102.585H455.216C450.525 102.585 446.839 103.59 444.159 105.601C441.478 107.611 440.138 110.426 440.138 114.044C440.138 117.663 441.545 120.612 444.36 122.89C447.174 125.169 451.262 126.308 456.623 126.308ZM529.426 144V44.2821H554.758V144H529.426ZM542.092 32.6215C537.535 32.6215 533.648 31.1472 530.432 28.1986C527.349 25.2499 525.808 21.3631 525.808 16.538C525.808 11.713 527.349 7.8261 530.432 4.87745C533.648 1.9288 537.535 0.454472 542.092 0.454472C546.783 0.454472 550.67 1.9288 553.753 4.87745C556.836 7.8261 558.377 11.713 558.377 16.538C558.377 21.3631 556.836 25.2499 553.753 28.1986C550.67 31.1472 546.783 32.6215 542.092 32.6215ZM616.988 144V3.26909H643.525V59.1594H647.144L692.781 3.26909H726.758L668.053 72.6293L728.768 144H693.786L647.144 86.9035H643.525V144H616.988ZM735.599 144V44.2821H760.93V144H735.599ZM748.265 32.6215C743.708 32.6215 739.821 31.1472 736.604 28.1986C733.521 25.2499 731.98 21.3631 731.98 16.538C731.98 11.713 733.521 7.8261 736.604 4.87745C739.821 1.9288 743.708 0.454472 748.265 0.454472C752.956 0.454472 756.843 1.9288 759.925 4.87745C763.008 7.8261 764.549 11.713 764.549 16.538C764.549 21.3631 763.008 25.2499 759.925 28.1986C756.843 31.1472 752.956 32.6215 748.265 32.6215ZM819.158 144C812.59 144 807.229 141.99 803.074 137.969C799.053 133.814 797.043 128.319 797.043 121.483V65.1907H772.114V44.2821H797.043V13.3213H822.375V44.2821H849.717V65.1907H822.375V117.06C822.375 121.081 824.251 123.091 828.004 123.091H847.304V144H819.158Z" fill="black"/>
</svg>
